<svg width="17559" height="4325" viewBox="0 0 17559 4325" fill="none" xmlns="http://www.w3.org/2000/svg">
<path d="M1491 16V11.2404L1494.7 4.96964H1493.1L1490.33 9.86663H1490.29L1487.53 4.96964H1485.91L1489.61 11.2485V16H1491ZM1499 7.36965C1496.62 7.36965 1495.35 9.09087 1495.35 11.3616V12.1212C1495.35 14.4242 1496.62 16.1374 1499 16.1374C1501.38 16.1374 1502.64 14.4242 1502.64 12.1212V11.3616C1502.64 9.09087 1501.38 7.36965 1499 7.36965ZM1499 8.55754C1500.45 8.55754 1501.25 9.67269 1501.25 11.4101V12.0727C1501.25 13.8101 1500.45 14.9333 1499 14.9333C1497.54 14.9333 1496.74 13.802 1496.74 12.0727V11.4101C1496.74 9.67269 1497.54 8.55754 1499 8.55754ZM1512.39 7.50703H1510.99V12.7677C1510.99 14.1172 1510.13 14.8848 1508.91 14.8848C1507.8 14.8848 1506.88 14.3757 1506.88 12.7919V7.50703H1505.48V13.1879C1505.48 15.1353 1506.74 16.1374 1508.49 16.1374C1509.85 16.1374 1510.65 15.5556 1510.95 14.8848H1511V16H1512.39V7.50703ZM1515.69 16H1517.08V10.7394C1517.08 9.59188 1517.55 8.65451 1519.06 8.65451C1519.31 8.65451 1519.59 8.66259 1519.73 8.68683V7.41814C1519.56 7.39389 1519.39 7.37773 1519.21 7.37773C1518 7.37773 1517.37 8.04036 1517.12 8.54946H1517.08V7.50703H1515.69V16ZM1526.26 16H1527.65V10.8283C1527.65 9.66461 1528.28 8.63026 1529.74 8.63026C1530.98 8.63026 1531.82 9.35754 1531.82 10.7879V16H1533.21V10.5535C1533.21 8.48481 1531.91 7.36965 1530.16 7.36965C1528.78 7.36965 1528 8.08885 1527.68 8.63026H1527.64V7.50703H1526.26V16ZM1538.67 16.1374C1539.92 16.1374 1540.7 15.6283 1541.13 14.9414H1541.17V16H1542.5V10.1414C1542.5 8.35551 1541.18 7.36965 1539.37 7.36965C1537.32 7.36965 1536.31 8.45248 1536.22 9.93936H1537.53C1537.61 9.09087 1538.23 8.53329 1539.32 8.53329C1540.47 8.53329 1541.12 9.14744 1541.12 10.2626V11.1272H1538.88C1536.93 11.1353 1535.9 12.0727 1535.9 13.5596C1535.9 15.1192 1537.03 16.1374 1538.67 16.1374ZM1539.04 14.9818C1538.15 14.9818 1537.32 14.5131 1537.32 13.5111C1537.32 12.7434 1537.82 12.1939 1538.98 12.1939H1541.12V13.1798C1541.12 14.2384 1540.23 14.9818 1539.04 14.9818ZM1545.73 16H1547.12V10.6182C1547.12 9.3333 1547.93 8.62218 1548.98 8.62218C1550.13 8.62218 1550.83 9.3333 1550.83 10.6343V16H1552.21V10.6343C1552.21 9.45451 1552.88 8.62218 1554.08 8.62218C1555.29 8.62218 1555.92 9.42219 1555.92 10.505V16H1557.3V10.2222C1557.3 8.47673 1556.24 7.36965 1554.45 7.36965C1553.06 7.36965 1552.17 8.00804 1551.84 8.73531H1551.78C1551.45 7.90299 1550.66 7.36965 1549.33 7.36965C1548.21 7.36965 1547.46 7.96763 1547.18 8.54946H1547.11V7.50703H1545.73V16ZM1563.79 16.1374C1565.67 16.1374 1566.79 15.0949 1567.11 13.6889H1565.73C1565.46 14.4808 1564.81 14.9737 1563.82 14.9737C1562.44 14.9737 1561.62 13.8667 1561.62 12.2505V12.0969H1567.23V11.305C1567.23 8.96966 1565.95 7.36965 1563.73 7.36965C1561.5 7.36965 1560.23 8.96966 1560.23 11.2081V12.1616C1560.23 14.5778 1561.58 16.1374 1563.79 16.1374ZM1561.62 10.9737V10.9495C1561.62 9.60805 1562.44 8.53329 1563.73 8.53329C1565 8.53329 1565.84 9.59997 1565.84 10.9495V10.9737H1561.62Z" fill="#8E8D94"/>
<path d="M498.977 1283.68C498.977 723.572 953.035 269.514 1513.15 269.514V269.514V1737.39H498.977V1283.68Z" fill="#278EFF" stroke="#278EFF" stroke-width="41.5857"/>
<rect x="498.977" y="1737.39" width="1014.17" height="100.007" fill="#278EFF" stroke="#278EFF" stroke-width="41.5857"/>
<path fill-rule="evenodd" clip-rule="evenodd" d="M517.376 2484.41C505.3 2421.83 498.976 2357.21 498.976 2291.1V1837.4H1513.14V3305.27C1267.57 3305.27 1042.38 3217.99 866.912 3072.75C691.849 3189.38 411.141 3300.23 72 3238.57C165.41 3198.54 525.707 2958.34 512.363 2477.94C513.966 2480.15 515.638 2482.3 517.376 2484.41Z" fill="#278EFF"/>
<path d="M517.376 2484.41L501.339 2497.64L537.793 2480.47L517.376 2484.41ZM498.976 1837.4V1816.6H478.183V1837.4H498.976ZM1513.14 1837.4H1533.94V1816.6H1513.14V1837.4ZM1513.14 3305.27V3326.06H1533.94V3305.27H1513.14ZM866.912 3072.75L880.17 3056.74L868.256 3046.87L855.384 3055.45L866.912 3072.75ZM72 3238.57L63.8093 3219.46L0.315116 3246.67L68.2805 3259.03L72 3238.57ZM512.363 2477.94L529.179 2465.71L489.715 2411.45L491.578 2478.52L512.363 2477.94ZM478.183 2291.1C478.183 2358.54 484.634 2424.48 496.96 2488.35L537.793 2480.47C525.965 2419.18 519.768 2355.88 519.768 2291.1H478.183ZM478.183 1837.4V2291.1H519.768V1837.4H478.183ZM1513.14 1816.6H498.976V1858.19H1513.14V1816.6ZM1533.94 3305.27V1837.4H1492.35V3305.27H1533.94ZM853.654 3088.77C1032.72 3236.98 1262.55 3326.06 1513.14 3326.06V3284.48C1272.59 3284.48 1052.05 3199 880.17 3056.74L853.654 3088.77ZM68.2805 3259.03C414.044 3321.89 700.155 3208.83 878.44 3090.06L855.384 3055.45C683.542 3169.93 408.237 3278.57 75.7195 3218.11L68.2805 3259.03ZM491.578 2478.52C498.091 2712.98 413.542 2888.45 315.978 3010.4C218.005 3132.87 107.329 3200.81 63.8093 3219.46L80.1907 3257.68C130.081 3236.3 246.259 3164.12 348.451 3036.38C451.051 2908.13 539.979 2723.3 533.147 2477.37L491.578 2478.52ZM533.414 2471.18C531.941 2469.39 530.529 2467.57 529.179 2465.71L495.547 2490.17C497.404 2492.73 499.336 2495.22 501.339 2497.64L533.414 2471.18Z" fill="#278EFF"/>
<rect x="1513.14" y="269.514" width="15010.7" height="3035.76" fill="#278EFF"/>
<rect x="1513.14" y="269.514" width="15010.7" height="3035.76" stroke="#278EFF" stroke-width="41.5857"/>
<path d="M17538 1283.68C17538 723.572 17083.9 269.514 16523.8 269.514V269.514V1737.39H17538V1283.68Z" fill="#278EFF" stroke="#278EFF" stroke-width="41.5857"/>
<rect width="1014.17" height="100.007" transform="matrix(-1 0 0 1 17538 1737.39)" fill="#278EFF" stroke="#278EFF" stroke-width="41.5857"/>
<path d="M17538 2291.1C17538 2851.21 17083.9 3305.27 16523.8 3305.27V3305.27V1837.4H17538V2291.1Z" fill="#278EFF" stroke="#278EFF" stroke-width="41.5857"/>
</svg>
