<svg width="15624" height="3477" viewBox="0 0 15624 3477" fill="none" xmlns="http://www.w3.org/2000/svg">
<path fill-rule="evenodd" clip-rule="evenodd" d="M517.376 2635.01C505.3 2572.44 498.976 2507.81 498.976 2441.71V1988H1513.14V3455.88C1267.57 3455.88 1042.38 3368.59 866.912 3223.36C691.849 3339.98 411.141 3450.84 72 3389.17C165.41 3349.14 525.707 3108.94 512.363 2628.55C513.966 2630.75 515.638 2632.91 517.376 2635.01Z" fill="#278EFF"/>
<path d="M517.376 2635.01L501.339 2648.25L537.793 2631.07L517.376 2635.01ZM498.976 1988V1967.21H478.183V1988H498.976ZM1513.14 1988H1533.94V1967.21H1513.14V1988ZM1513.14 3455.88V3476.67H1533.94V3455.88H1513.14ZM866.912 3223.36L880.17 3207.34L868.256 3197.48L855.384 3206.05L866.912 3223.36ZM72 3389.17L63.8093 3370.06L0.315118 3397.27L68.2805 3409.63L72 3389.17ZM512.363 2628.55L529.179 2616.32L489.715 2562.05L491.578 2629.12L512.363 2628.55ZM478.183 2441.71C478.183 2509.14 484.634 2575.08 496.96 2638.95L537.793 2631.07C525.965 2569.79 519.768 2506.48 519.768 2441.71H478.183ZM478.183 1988V2441.71H519.768V1988H478.183ZM1513.14 1967.21H498.976V2008.79H1513.14V1967.21ZM1533.94 3455.88V1988H1492.35V3455.88H1533.94ZM853.654 3239.38C1032.72 3387.58 1262.55 3476.67 1513.14 3476.67V3435.08C1272.59 3435.08 1052.05 3349.6 880.17 3207.34L853.654 3239.38ZM68.2805 3409.63C414.044 3472.5 700.155 3359.43 878.44 3240.66L855.384 3206.05C683.542 3320.53 408.237 3429.17 75.7195 3368.72L68.2805 3409.63ZM491.578 2629.12C498.091 2863.58 413.542 3039.05 315.978 3161.01C218.005 3283.47 107.329 3351.41 63.8093 3370.06L80.1907 3408.28C130.081 3386.9 246.259 3314.73 348.451 3186.99C451.051 3058.73 539.979 2873.91 533.147 2627.97L491.578 2629.12ZM533.414 2621.78C531.941 2619.99 530.529 2618.17 529.179 2616.32L495.547 2640.78C497.404 2643.33 499.336 2645.82 501.339 2648.25L533.414 2621.78Z" fill="#278EFF"/>
<rect x="456" width="15168" height="3456" rx="1000" fill="#278EFF"/>
<path d="M1723.02 1505L1530.42 831.871H1685.88L1797.3 1299.58H1802.89L1925.82 831.871H2058.93L2181.53 1300.56H2187.44L2298.86 831.871H2454.33L2261.72 1505H2123.02L1994.84 1064.9H1989.58L1861.73 1505H1723.02ZM2749.99 1514.86C2698.06 1514.86 2653.36 1504.34 2615.89 1483.31C2578.64 1462.05 2549.93 1432.03 2529.78 1393.25C2509.62 1354.25 2499.54 1308.12 2499.54 1254.88C2499.54 1202.95 2509.62 1157.37 2529.78 1118.15C2549.93 1078.93 2578.31 1048.36 2614.9 1026.45C2651.71 1004.54 2694.88 993.58 2744.4 993.58C2777.71 993.58 2808.71 998.948 2837.42 1009.69C2866.34 1020.2 2891.54 1036.09 2913.01 1057.34C2934.71 1078.6 2951.58 1105.33 2963.63 1137.54C2975.68 1169.53 2981.71 1207 2981.71 1249.95V1288.4H2555.41V1201.63H2849.91C2849.91 1181.47 2845.52 1163.62 2836.76 1148.06C2827.99 1132.5 2815.83 1120.34 2800.28 1111.57C2784.94 1102.59 2767.08 1098.1 2746.7 1098.1C2725.45 1098.1 2706.6 1103.03 2690.17 1112.89C2673.96 1122.53 2661.25 1135.57 2652.04 1152C2642.84 1168.22 2638.13 1186.29 2637.91 1206.23V1288.73C2637.91 1313.71 2642.51 1335.29 2651.71 1353.48C2661.14 1371.67 2674.39 1385.69 2691.48 1395.55C2708.58 1405.41 2728.84 1410.34 2752.29 1410.34C2767.85 1410.34 2782.09 1408.15 2795.02 1403.77C2807.95 1399.39 2819.01 1392.81 2828.21 1384.05C2837.42 1375.28 2844.43 1364.55 2849.25 1351.84L2978.75 1360.38C2972.17 1391.5 2958.7 1418.67 2938.32 1441.89C2918.16 1464.9 2892.09 1482.87 2860.1 1495.8C2828.32 1508.51 2791.62 1514.86 2749.99 1514.86ZM3259.37 831.871V1505H3119.36V831.871H3259.37ZM3645.91 1514.86C3594.2 1514.86 3549.72 1503.9 3512.47 1481.99C3475.44 1459.86 3446.95 1429.19 3427.01 1389.96C3407.29 1350.74 3397.43 1305.6 3397.43 1254.55C3397.43 1202.84 3407.4 1157.48 3427.34 1118.48C3447.5 1079.25 3476.09 1048.69 3513.13 1026.78C3550.16 1004.65 3594.2 993.58 3645.25 993.58C3689.3 993.58 3727.86 1001.58 3760.95 1017.57C3794.03 1033.57 3820.22 1056.03 3839.5 1084.95C3858.78 1113.88 3869.41 1147.84 3871.38 1186.84H3739.25C3735.53 1161.64 3725.67 1141.37 3709.67 1126.04C3693.9 1110.48 3673.19 1102.7 3647.55 1102.7C3625.86 1102.7 3606.91 1108.62 3590.69 1120.45C3574.7 1132.06 3562.21 1149.04 3553.22 1171.39C3544.24 1193.74 3539.75 1220.8 3539.75 1252.58C3539.75 1284.79 3544.13 1312.18 3552.9 1334.75C3561.88 1357.31 3574.48 1374.52 3590.69 1386.35C3606.91 1398.18 3625.86 1404.1 3647.55 1404.1C3663.55 1404.1 3677.9 1400.81 3690.61 1394.24C3703.54 1387.66 3714.17 1378.13 3722.49 1365.64C3731.04 1352.93 3736.63 1337.7 3739.25 1319.96H3871.38C3869.19 1358.52 3858.67 1392.48 3839.83 1421.84C3821.2 1450.99 3795.46 1473.78 3762.59 1490.21C3729.72 1506.64 3690.83 1514.86 3645.91 1514.86ZM4235.41 1514.86C4184.35 1514.86 4140.2 1504.01 4102.95 1482.32C4065.92 1460.41 4037.33 1429.95 4017.17 1390.95C3997.01 1351.73 3986.93 1306.26 3986.93 1254.55C3986.93 1202.4 3997.01 1156.82 4017.17 1117.82C4037.33 1078.6 4065.92 1048.14 4102.95 1026.45C4140.2 1004.54 4184.35 993.58 4235.41 993.58C4286.46 993.58 4330.51 1004.54 4367.54 1026.45C4404.79 1048.14 4433.49 1078.6 4453.65 1117.82C4473.81 1156.82 4483.89 1202.4 4483.89 1254.55C4483.89 1306.26 4473.81 1351.73 4453.65 1390.95C4433.49 1429.95 4404.79 1460.41 4367.54 1482.32C4330.51 1504.01 4286.46 1514.86 4235.41 1514.86ZM4236.07 1406.4C4259.29 1406.4 4278.68 1399.82 4294.24 1386.68C4309.8 1373.31 4321.52 1355.12 4329.41 1332.12C4337.52 1309.11 4341.57 1282.92 4341.57 1253.56C4341.57 1224.2 4337.52 1198.02 4329.41 1175.01C4321.52 1152 4309.8 1133.82 4294.24 1120.45C4278.68 1107.08 4259.29 1100.4 4236.07 1100.4C4212.62 1100.4 4192.9 1107.08 4176.9 1120.45C4161.13 1133.82 4149.19 1152 4141.08 1175.01C4133.19 1198.02 4129.25 1224.2 4129.25 1253.56C4129.25 1282.92 4133.19 1309.11 4141.08 1332.12C4149.19 1355.12 4161.13 1373.31 4176.9 1386.68C4192.9 1399.82 4212.62 1406.4 4236.07 1406.4ZM4621.21 1505V1000.15H4754.65V1089.22H4760.57C4771.08 1059.64 4788.61 1036.31 4813.16 1019.22C4837.7 1002.13 4867.06 993.58 4901.24 993.58C4935.86 993.58 4965.33 1002.24 4989.65 1019.55C5013.98 1036.64 5030.19 1059.86 5038.3 1089.22H5043.56C5053.86 1060.3 5072.48 1037.18 5099.43 1019.87C5126.6 1002.34 5158.7 993.58 5195.73 993.58C5242.84 993.58 5281.08 1008.59 5310.44 1038.61C5340.02 1068.41 5354.81 1110.7 5354.81 1165.48V1505H5215.13V1193.09C5215.13 1165.04 5207.68 1144 5192.78 1129.98C5177.88 1115.96 5159.25 1108.95 5136.9 1108.95C5111.48 1108.95 5091.65 1117.05 5077.41 1133.27C5063.17 1149.26 5056.05 1170.41 5056.05 1196.7V1505H4920.3V1190.13C4920.3 1165.37 4913.18 1145.65 4898.94 1130.97C4884.92 1116.29 4866.4 1108.95 4843.39 1108.95C4827.84 1108.95 4813.81 1112.89 4801.32 1120.78C4789.05 1128.45 4779.3 1139.29 4772.07 1153.32C4764.84 1167.12 4761.22 1183.34 4761.22 1201.96V1505H4621.21ZM5741.76 1514.86C5689.83 1514.86 5645.13 1504.34 5607.66 1483.31C5570.41 1462.05 5541.71 1432.03 5521.55 1393.25C5501.39 1354.25 5491.31 1308.12 5491.31 1254.88C5491.31 1202.95 5501.39 1157.37 5521.55 1118.15C5541.71 1078.93 5570.09 1048.36 5606.68 1026.45C5643.49 1004.54 5686.66 993.58 5736.18 993.58C5769.48 993.58 5800.49 998.948 5829.19 1009.69C5858.12 1020.2 5883.31 1036.09 5904.79 1057.34C5926.48 1078.6 5943.35 1105.33 5955.4 1137.54C5967.45 1169.53 5973.48 1207 5973.48 1249.95V1288.4H5547.19V1201.63H5841.68C5841.68 1181.47 5837.3 1163.62 5828.53 1148.06C5819.77 1132.5 5807.61 1120.34 5792.05 1111.57C5776.71 1102.59 5758.85 1098.1 5738.48 1098.1C5717.22 1098.1 5698.38 1103.03 5681.94 1112.89C5665.73 1122.53 5653.02 1135.57 5643.82 1152C5634.62 1168.22 5629.9 1186.29 5629.69 1206.23V1288.73C5629.69 1313.71 5634.29 1335.29 5643.49 1353.48C5652.91 1371.67 5666.17 1385.69 5683.26 1395.55C5700.35 1405.41 5720.62 1410.34 5744.06 1410.34C5759.62 1410.34 5773.86 1408.15 5786.79 1403.77C5799.72 1399.39 5810.79 1392.81 5819.99 1384.05C5829.19 1375.28 5836.2 1364.55 5841.02 1351.84L5970.52 1360.38C5963.95 1391.5 5950.47 1418.67 5930.1 1441.89C5909.94 1464.9 5883.86 1482.87 5851.87 1495.8C5820.1 1508.51 5783.4 1514.86 5741.76 1514.86ZM6278.43 831.871L6265.61 1303.19H6145.31L6132.17 831.871H6278.43ZM6205.46 1513.55C6183.77 1513.55 6165.14 1505.88 6149.58 1490.54C6134.03 1474.98 6126.36 1456.36 6126.58 1434.66C6126.36 1413.19 6134.03 1394.78 6149.58 1379.45C6165.14 1364.11 6183.77 1356.44 6205.46 1356.44C6226.28 1356.44 6244.57 1364.11 6260.35 1379.45C6276.13 1394.78 6284.12 1413.19 6284.34 1434.66C6284.12 1449.13 6280.29 1462.38 6272.84 1474.43C6265.61 1486.27 6256.08 1495.8 6244.24 1503.03C6232.41 1510.04 6219.48 1513.55 6205.46 1513.55ZM6539.33 1513.55C6517.64 1513.55 6499.01 1505.88 6483.45 1490.54C6468.12 1474.98 6460.45 1456.36 6460.45 1434.66C6460.45 1413.19 6468.12 1394.78 6483.45 1379.45C6499.01 1364.11 6517.64 1356.44 6539.33 1356.44C6560.36 1356.44 6578.77 1364.11 6594.55 1379.45C6610.32 1394.78 6618.21 1413.19 6618.21 1434.66C6618.21 1449.13 6614.49 1462.38 6607.04 1474.43C6599.81 1486.27 6590.27 1495.8 6578.44 1503.03C6566.61 1510.04 6553.57 1513.55 6539.33 1513.55ZM6861.28 1513.55C6839.59 1513.55 6820.97 1505.88 6805.41 1490.54C6790.07 1474.98 6782.4 1456.36 6782.4 1434.66C6782.4 1413.19 6790.07 1394.78 6805.41 1379.45C6820.97 1364.11 6839.59 1356.44 6861.28 1356.44C6882.32 1356.44 6900.72 1364.11 6916.5 1379.45C6932.28 1394.78 6940.17 1413.19 6940.17 1434.66C6940.17 1449.13 6936.44 1462.38 6928.99 1474.43C6921.76 1486.27 6912.23 1495.8 6900.4 1503.03C6888.56 1510.04 6875.53 1513.55 6861.28 1513.55ZM7183.24 1513.55C7161.55 1513.55 7142.92 1505.88 7127.36 1490.54C7112.03 1474.98 7104.36 1456.36 7104.36 1434.66C7104.36 1413.19 7112.03 1394.78 7127.36 1379.45C7142.92 1364.11 7161.55 1356.44 7183.24 1356.44C7204.27 1356.44 7222.68 1364.11 7238.46 1379.45C7254.23 1394.78 7262.12 1413.19 7262.12 1434.66C7262.12 1449.13 7258.4 1462.38 7250.95 1474.43C7243.72 1486.27 7234.18 1495.8 7222.35 1503.03C7210.52 1510.04 7197.48 1513.55 7183.24 1513.55ZM7797.16 831.871V1505H7654.84V831.871H7797.16ZM7957.9 1505V1000.15H8091.34V1089.22H8097.25C8107.77 1059.64 8125.3 1036.31 8149.84 1019.22C8174.38 1002.13 8203.75 993.58 8237.93 993.58C8272.55 993.58 8302.02 1002.24 8326.34 1019.55C8350.66 1036.64 8366.88 1059.86 8374.99 1089.22H8380.24C8390.54 1060.3 8409.17 1037.18 8436.12 1019.87C8463.29 1002.34 8495.39 993.58 8532.42 993.58C8579.53 993.58 8617.77 1008.59 8647.13 1038.61C8676.71 1068.41 8691.5 1110.7 8691.5 1165.48V1505H8551.81V1193.09C8551.81 1165.04 8544.36 1144 8529.46 1129.98C8514.56 1115.96 8495.94 1108.95 8473.59 1108.95C8448.17 1108.95 8428.34 1117.05 8414.1 1133.27C8399.86 1149.26 8392.73 1170.41 8392.73 1196.7V1505H8256.99V1190.13C8256.99 1165.37 8249.87 1145.65 8235.63 1130.97C8221.6 1116.29 8203.09 1108.95 8180.08 1108.95C8164.52 1108.95 8150.5 1112.89 8138.01 1120.78C8125.74 1128.45 8115.99 1139.29 8108.76 1153.32C8101.53 1167.12 8097.91 1183.34 8097.91 1201.96V1505H7957.9ZM9111.5 1505V831.871H9381.01C9430.53 831.871 9471.84 839.212 9504.92 853.893C9538.01 868.573 9562.88 888.951 9579.53 915.026C9596.19 940.882 9604.51 970.682 9604.51 1004.43C9604.51 1030.72 9599.25 1053.84 9588.74 1073.78C9578.22 1093.5 9563.76 1109.71 9545.35 1122.42C9527.17 1134.91 9506.35 1143.78 9482.9 1149.04V1155.62C9508.54 1156.71 9532.53 1163.94 9554.88 1177.31C9577.45 1190.68 9595.75 1209.41 9609.77 1233.51C9623.8 1257.4 9630.81 1285.88 9630.81 1318.97C9630.81 1354.69 9621.93 1386.57 9604.18 1414.61C9586.66 1442.44 9560.69 1464.46 9526.29 1480.68C9491.89 1496.89 9449.49 1505 9399.09 1505H9111.5ZM9253.82 1388.65H9369.84C9409.5 1388.65 9438.42 1381.09 9456.61 1365.97C9474.8 1350.63 9483.89 1330.25 9483.89 1304.84C9483.89 1286.21 9479.4 1269.78 9470.41 1255.53C9461.43 1241.29 9448.61 1230.12 9431.96 1222.01C9415.52 1213.9 9395.91 1209.85 9373.13 1209.85H9253.82V1388.65ZM9253.82 1113.55H9359.32C9378.82 1113.55 9396.13 1110.15 9411.25 1103.36C9426.59 1096.35 9438.64 1086.49 9447.41 1073.78C9456.39 1061.07 9460.88 1045.84 9460.88 1028.09C9460.88 1003.77 9452.23 984.158 9434.92 969.258C9417.83 954.358 9393.5 946.908 9361.95 946.908H9253.82V1113.55ZM9995.16 1514.86C9944.11 1514.86 9899.96 1504.01 9862.71 1482.32C9825.67 1460.41 9797.08 1429.95 9776.92 1390.95C9756.76 1351.73 9746.68 1306.26 9746.68 1254.55C9746.68 1202.4 9756.76 1156.82 9776.92 1117.82C9797.08 1078.6 9825.67 1048.14 9862.71 1026.45C9899.96 1004.54 9944.11 993.58 9995.16 993.58C10046.2 993.58 10090.3 1004.54 10127.3 1026.45C10164.5 1048.14 10193.2 1078.6 10213.4 1117.82C10233.6 1156.82 10243.6 1202.4 10243.6 1254.55C10243.6 1306.26 10233.6 1351.73 10213.4 1390.95C10193.2 1429.95 10164.5 1460.41 10127.3 1482.32C10090.3 1504.01 10046.2 1514.86 9995.16 1514.86ZM9995.82 1406.4C10019 1406.4 10038.4 1399.82 10054 1386.68C10069.6 1373.31 10081.3 1355.12 10089.2 1332.12C10097.3 1309.11 10101.3 1282.92 10101.3 1253.56C10101.3 1224.2 10097.3 1198.02 10089.2 1175.01C10081.3 1152 10069.6 1133.82 10054 1120.45C10038.4 1107.08 10019 1100.4 9995.82 1100.4C9972.37 1100.4 9952.65 1107.08 9936.66 1120.45C9920.88 1133.82 9908.94 1152 9900.83 1175.01C9892.94 1198.02 9889 1224.2 9889 1253.56C9889 1282.92 9892.94 1309.11 9900.83 1332.12C9908.94 1355.12 9920.88 1373.31 9936.66 1386.68C9952.65 1399.82 9972.37 1406.4 9995.82 1406.4ZM10383.6 1505V831.871H10523.6V1084.95H10527.9C10534 1071.37 10542.9 1057.56 10554.5 1043.54C10566.3 1029.3 10581.7 1017.46 10600.5 1008.04C10619.6 998.401 10643.2 993.58 10671.5 993.58C10708.3 993.58 10742.3 1003.22 10773.4 1022.5C10804.5 1041.57 10829.4 1070.38 10848 1108.95C10866.6 1147.29 10875.9 1195.39 10875.9 1253.23C10875.9 1309.55 10866.9 1357.1 10848.7 1395.88C10830.7 1434.44 10806.2 1463.7 10775 1483.64C10744.1 1503.36 10709.5 1513.22 10671.2 1513.22C10644 1513.22 10620.9 1508.72 10601.8 1499.74C10583 1490.76 10567.5 1479.47 10555.5 1465.89C10543.4 1452.08 10534.2 1438.17 10527.9 1424.15H10521.6V1505H10383.6ZM10520.6 1252.58C10520.6 1282.6 10524.8 1308.78 10533.1 1331.13C10541.5 1353.48 10553.5 1370.9 10569.3 1383.39C10585.1 1395.66 10604.2 1401.8 10626.8 1401.8C10649.6 1401.8 10668.9 1395.55 10684.7 1383.06C10700.4 1370.35 10712.4 1352.82 10720.5 1330.47C10728.8 1307.9 10733 1281.94 10733 1252.58C10733 1223.43 10728.9 1197.8 10720.8 1175.67C10712.7 1153.54 10700.8 1136.23 10685 1123.74C10669.2 1111.25 10649.8 1105 10626.8 1105C10604 1105 10584.7 1111.03 10569 1123.08C10553.4 1135.13 10541.5 1152.22 10533.1 1174.35C10524.8 1196.48 10520.6 1222.56 10520.6 1252.58ZM11167.8 1412.97L11164.2 1449.13C11161.4 1478.05 11155.9 1506.86 11147.8 1535.57C11139.9 1564.49 11131.6 1590.67 11122.8 1614.12C11114.3 1637.57 11107.4 1655.97 11102.1 1669.34H11011.4C11014.7 1656.41 11019.2 1638.33 11024.9 1615.11C11030.6 1592.1 11035.9 1566.24 11041 1537.54C11046 1508.83 11049.2 1479.58 11050.5 1449.78L11052.1 1412.97H11167.8ZM11657.4 1694.32C11639.7 1694.32 11623 1692.89 11607.5 1690.04C11592.1 1687.42 11579.4 1684.02 11569.3 1679.86L11600.9 1575.34C11617.3 1580.38 11632.1 1583.12 11645.3 1583.55C11658.6 1583.99 11670.1 1580.92 11679.8 1574.35C11689.6 1567.78 11697.6 1556.6 11703.8 1540.83L11712 1519.46L11530.9 1000.15H11678.1L11782.7 1370.9H11787.9L11893.4 1000.15H12041.6L11845.4 1559.56C11836 1586.73 11823.2 1610.4 11807 1630.55C11791 1650.93 11770.7 1666.6 11746.2 1677.55C11721.6 1688.73 11692 1694.32 11657.4 1694.32ZM12371.4 1514.86C12320.4 1514.86 12276.2 1504.01 12239 1482.32C12201.9 1460.41 12173.3 1429.95 12153.2 1390.95C12133 1351.73 12122.9 1306.26 12122.9 1254.55C12122.9 1202.4 12133 1156.82 12153.2 1117.82C12173.3 1078.6 12201.9 1048.14 12239 1026.45C12276.2 1004.54 12320.4 993.58 12371.4 993.58C12422.5 993.58 12466.5 1004.54 12503.5 1026.45C12540.8 1048.14 12569.5 1078.6 12589.6 1117.82C12609.8 1156.82 12619.9 1202.4 12619.9 1254.55C12619.9 1306.26 12609.8 1351.73 12589.6 1390.95C12569.5 1429.95 12540.8 1460.41 12503.5 1482.32C12466.5 1504.01 12422.5 1514.86 12371.4 1514.86ZM12372.1 1406.4C12395.3 1406.4 12414.7 1399.82 12430.2 1386.68C12445.8 1373.31 12457.5 1355.12 12465.4 1332.12C12473.5 1309.11 12477.6 1282.92 12477.6 1253.56C12477.6 1224.2 12473.5 1198.02 12465.4 1175.01C12457.5 1152 12445.8 1133.82 12430.2 1120.45C12414.7 1107.08 12395.3 1100.4 12372.1 1100.4C12348.6 1100.4 12328.9 1107.08 12312.9 1120.45C12297.1 1133.82 12285.2 1152 12277.1 1175.01C12269.2 1198.02 12265.2 1224.2 12265.2 1253.56C12265.2 1282.92 12269.2 1309.11 12277.1 1332.12C12285.2 1355.12 12297.1 1373.31 12312.9 1386.68C12328.9 1399.82 12348.6 1406.4 12372.1 1406.4ZM13081 1290.05V1000.15H13221V1505H13086.5V1413.3H13081.3C13069.9 1442.88 13050.9 1466.65 13024.4 1484.62C12998.1 1502.59 12966 1511.57 12928.1 1511.57C12894.4 1511.57 12864.7 1503.9 12839 1488.57C12813.4 1473.23 12793.4 1451.43 12778.9 1423.16C12764.7 1394.89 12757.4 1361.04 12757.2 1321.6V1000.15H12897.2V1296.62C12897.4 1326.42 12905.4 1349.97 12921.2 1367.28C12937 1384.59 12958.1 1393.25 12984.7 1393.25C13001.5 1393.25 13017.3 1389.42 13032 1381.75C13046.7 1373.86 13058.5 1362.24 13067.5 1346.91C13076.7 1331.57 13081.2 1312.61 13081 1290.05ZM13379.2 1505V1000.15H13515V1088.24H13520.2C13529.4 1056.9 13544.9 1033.24 13566.6 1017.24C13588.3 1001.03 13613.3 992.923 13641.5 992.923C13648.5 992.923 13656.1 993.361 13664.2 994.237C13672.3 995.114 13679.4 996.319 13685.6 997.853V1122.09C13679 1120.12 13669.9 1118.37 13658.3 1116.83C13646.7 1115.3 13636 1114.53 13626.4 1114.53C13605.8 1114.53 13587.4 1119.02 13571.2 1128.01C13555.2 1136.77 13542.5 1149.04 13533.1 1164.82C13523.9 1180.6 13519.3 1198.78 13519.3 1219.38V1505H13379.2ZM1796.32 2824.84C1750.96 2824.84 1712.07 2818.59 1679.64 2806.1C1647.43 2793.83 1621.79 2777.07 1602.73 2755.81C1583.67 2734.56 1571.29 2710.67 1565.59 2684.16L1695.09 2666.74C1699.03 2676.82 1705.28 2686.24 1713.82 2695.01C1722.37 2703.77 1733.65 2710.78 1747.67 2716.04C1761.92 2721.52 1779.23 2724.26 1799.61 2724.26C1830.06 2724.26 1855.15 2716.81 1874.87 2701.91C1894.81 2687.23 1904.78 2662.58 1904.78 2627.96V2535.6H1898.87C1892.73 2549.62 1883.53 2562.88 1871.26 2575.37C1858.99 2587.86 1843.21 2598.05 1823.93 2605.94C1804.65 2613.83 1781.64 2617.77 1754.91 2617.77C1717 2617.77 1682.49 2609 1651.37 2591.48C1620.48 2573.73 1595.83 2546.67 1577.42 2510.29C1559.23 2473.7 1550.14 2427.47 1550.14 2371.59C1550.14 2314.4 1559.45 2266.63 1578.08 2228.29C1596.7 2189.94 1621.46 2161.24 1652.36 2142.17C1683.47 2123.11 1717.55 2113.58 1754.58 2113.58C1782.84 2113.58 1806.51 2118.4 1825.57 2128.04C1844.63 2137.46 1859.97 2149.3 1871.59 2163.54C1883.42 2177.56 1892.51 2191.37 1898.87 2204.95H1904.12V2120.15H2043.15V2629.93C2043.15 2672.88 2032.64 2708.81 2011.6 2737.74C1990.57 2766.66 1961.42 2788.35 1924.17 2802.81C1887.14 2817.49 1844.52 2824.84 1796.32 2824.84ZM1799.28 2512.59C1821.85 2512.59 1840.91 2507.01 1856.47 2495.83C1872.24 2484.44 1884.29 2468.22 1892.62 2447.19C1901.17 2425.93 1905.44 2400.51 1905.44 2370.93C1905.44 2341.35 1901.28 2315.72 1892.95 2294.02C1884.62 2272.11 1872.57 2255.13 1856.8 2243.08C1841.02 2231.03 1821.85 2225 1799.28 2225C1776.27 2225 1756.88 2231.25 1741.1 2243.74C1725.32 2256.01 1713.38 2273.1 1705.28 2295.01C1697.17 2316.92 1693.11 2342.23 1693.11 2370.93C1693.11 2400.08 1697.17 2425.27 1705.28 2446.53C1713.6 2467.56 1725.54 2483.89 1741.1 2495.5C1756.88 2506.9 1776.27 2512.59 1799.28 2512.59ZM2524.6 2410.05V2120.15H2664.62V2625H2530.19V2533.3H2524.93C2513.53 2562.88 2494.58 2586.65 2468.07 2604.62C2441.77 2622.59 2409.67 2631.57 2371.77 2631.57C2338.02 2631.57 2308.33 2623.9 2282.69 2608.57C2257.06 2593.23 2237.01 2571.43 2222.55 2543.16C2208.3 2514.89 2201.07 2481.04 2200.85 2441.6V2120.15H2340.87V2416.62C2341.09 2446.42 2349.09 2469.97 2364.86 2487.28C2380.64 2504.59 2401.78 2513.25 2428.3 2513.25C2445.17 2513.25 2460.95 2509.42 2475.63 2501.75C2490.31 2493.86 2502.14 2482.24 2511.12 2466.91C2520.33 2451.57 2524.82 2432.61 2524.6 2410.05ZM2822.89 2625V2120.15H2962.91V2625H2822.89ZM2893.23 2055.08C2872.41 2055.08 2854.55 2048.17 2839.65 2034.37C2824.97 2020.35 2817.63 2003.58 2817.63 1984.08C2817.63 1964.8 2824.97 1948.26 2839.65 1934.45C2854.55 1920.43 2872.41 1913.42 2893.23 1913.42C2914.04 1913.42 2931.79 1920.43 2946.47 1934.45C2961.37 1948.26 2968.82 1964.8 2968.82 1984.08C2968.82 2003.58 2961.37 2020.35 2946.47 2034.37C2931.79 2048.17 2914.04 2055.08 2893.23 2055.08ZM3307.37 2633.22C3269.03 2633.22 3234.3 2623.36 3203.18 2603.64C3172.29 2583.7 3147.75 2554.44 3129.56 2515.88C3111.59 2477.1 3102.61 2429.55 3102.61 2373.23C3102.61 2315.39 3111.92 2267.29 3130.55 2228.95C3149.17 2190.38 3173.93 2161.57 3204.83 2142.5C3235.94 2123.22 3270.01 2113.58 3307.05 2113.58C3335.31 2113.58 3358.87 2118.4 3377.71 2128.04C3396.77 2137.46 3412.11 2149.3 3423.73 2163.54C3435.56 2177.56 3444.54 2191.37 3450.68 2204.95H3454.95V1951.87H3594.64V2625H3456.59V2544.15H3450.68C3444.1 2558.17 3434.79 2572.08 3422.74 2585.89C3410.91 2599.47 3395.46 2610.76 3376.4 2619.74C3357.55 2628.72 3334.55 2633.22 3307.37 2633.22ZM3351.75 2521.8C3374.31 2521.8 3393.38 2515.66 3408.94 2503.39C3424.71 2490.9 3436.76 2473.48 3445.09 2451.13C3453.64 2428.78 3457.91 2402.6 3457.91 2372.58C3457.91 2342.56 3453.74 2316.48 3445.42 2294.35C3437.09 2272.22 3425.04 2255.13 3409.26 2243.08C3393.49 2231.03 3374.31 2225 3351.75 2225C3328.74 2225 3309.35 2231.25 3293.57 2243.74C3277.79 2256.23 3265.85 2273.54 3257.74 2295.67C3249.64 2317.8 3245.58 2343.43 3245.58 2372.58C3245.58 2401.94 3249.64 2427.9 3257.74 2450.47C3266.07 2472.82 3278.01 2490.35 3293.57 2503.06C3309.35 2515.55 3328.74 2521.8 3351.75 2521.8ZM3986.11 2634.86C3934.18 2634.86 3889.48 2624.34 3852.01 2603.31C3814.76 2582.05 3786.05 2552.03 3765.89 2513.25C3745.74 2474.25 3735.66 2428.12 3735.66 2374.88C3735.66 2322.95 3745.74 2277.37 3765.89 2238.15C3786.05 2198.93 3814.43 2168.36 3851.02 2146.45C3887.83 2124.54 3931 2113.58 3980.52 2113.58C4013.83 2113.58 4044.83 2118.95 4073.54 2129.69C4102.46 2140.2 4127.66 2156.09 4149.13 2177.34C4170.82 2198.6 4187.7 2225.33 4199.75 2257.54C4211.8 2289.53 4217.82 2327 4217.82 2369.95V2408.4H3791.53V2321.63H4086.02C4086.02 2301.47 4081.64 2283.62 4072.88 2268.06C4064.11 2252.5 4051.95 2240.34 4036.39 2231.57C4021.06 2222.59 4003.2 2218.1 3982.82 2218.1C3961.57 2218.1 3942.72 2223.03 3926.29 2232.89C3910.07 2242.53 3897.36 2255.57 3888.16 2272C3878.96 2288.22 3874.25 2306.29 3874.03 2326.23V2408.73C3874.03 2433.71 3878.63 2455.29 3887.83 2473.48C3897.26 2491.67 3910.51 2505.69 3927.6 2515.55C3944.69 2525.41 3964.96 2530.34 3988.41 2530.34C4003.97 2530.34 4018.21 2528.15 4031.14 2523.77C4044.06 2519.39 4055.13 2512.81 4064.33 2504.05C4073.54 2495.28 4080.55 2484.55 4085.37 2471.84L4214.87 2480.38C4208.29 2511.5 4194.82 2538.67 4174.44 2561.89C4154.28 2584.9 4128.2 2602.87 4096.21 2615.8C4064.44 2628.51 4027.74 2634.86 3986.11 2634.86ZM4437.31 2633.55C4415.62 2633.55 4397 2625.88 4381.44 2610.54C4366.1 2594.98 4358.43 2576.36 4358.43 2554.66C4358.43 2533.19 4366.1 2514.78 4381.44 2499.45C4397 2484.11 4415.62 2476.44 4437.31 2476.44C4458.35 2476.44 4476.75 2484.11 4492.53 2499.45C4508.31 2514.78 4516.2 2533.19 4516.2 2554.66C4516.2 2569.13 4512.47 2582.38 4505.02 2594.43C4497.79 2606.27 4488.26 2615.8 4476.43 2623.03C4464.59 2630.04 4451.56 2633.55 4437.31 2633.55ZM4759.27 2633.55C4737.58 2633.55 4718.95 2625.88 4703.39 2610.54C4688.06 2594.98 4680.39 2576.36 4680.39 2554.66C4680.39 2533.19 4688.06 2514.78 4703.39 2499.45C4718.95 2484.11 4737.58 2476.44 4759.27 2476.44C4780.3 2476.44 4798.71 2484.11 4814.49 2499.45C4830.26 2514.78 4838.15 2533.19 4838.15 2554.66C4838.15 2569.13 4834.43 2582.38 4826.98 2594.43C4819.74 2606.27 4810.21 2615.8 4798.38 2623.03C4786.55 2630.04 4773.51 2633.55 4759.27 2633.55ZM5081.22 2633.55C5059.53 2633.55 5040.91 2625.88 5025.35 2610.54C5010.01 2594.98 5002.34 2576.36 5002.34 2554.66C5002.34 2533.19 5010.01 2514.78 5025.35 2499.45C5040.91 2484.11 5059.53 2476.44 5081.22 2476.44C5102.26 2476.44 5120.66 2484.11 5136.44 2499.45C5152.22 2514.78 5160.11 2533.19 5160.11 2554.66C5160.11 2569.13 5156.38 2582.38 5148.93 2594.43C5141.7 2606.27 5132.17 2615.8 5120.34 2623.03C5108.5 2630.04 5095.47 2633.55 5081.22 2633.55Z" fill="white"/>
</svg>
