<svg width="15624" height="3477" viewBox="0 0 15624 3477" fill="none" xmlns="http://www.w3.org/2000/svg">
<path fill-rule="evenodd" clip-rule="evenodd" d="M517.376 2635.01C505.3 2572.44 498.976 2507.81 498.976 2441.71V1988H1513.14V3455.88C1267.57 3455.88 1042.38 3368.59 866.912 3223.36C691.849 3339.98 411.141 3450.84 72 3389.17C165.41 3349.14 525.707 3108.94 512.363 2628.55C513.966 2630.75 515.638 2632.91 517.376 2635.01Z" fill="#278EFF"/>
<path d="M517.376 2635.01L501.339 2648.25L537.793 2631.07L517.376 2635.01ZM498.976 1988V1967.21H478.183V1988H498.976ZM1513.14 1988H1533.94V1967.21H1513.14V1988ZM1513.14 3455.88V3476.67H1533.94V3455.88H1513.14ZM866.912 3223.36L880.17 3207.34L868.256 3197.48L855.384 3206.05L866.912 3223.36ZM72 3389.17L63.8093 3370.06L0.315118 3397.27L68.2805 3409.63L72 3389.17ZM512.363 2628.55L529.179 2616.32L489.715 2562.05L491.578 2629.12L512.363 2628.55ZM478.183 2441.71C478.183 2509.14 484.634 2575.08 496.96 2638.95L537.793 2631.07C525.965 2569.79 519.768 2506.48 519.768 2441.71H478.183ZM478.183 1988V2441.71H519.768V1988H478.183ZM1513.14 1967.21H498.976V2008.79H1513.14V1967.21ZM1533.94 3455.88V1988H1492.35V3455.88H1533.94ZM853.654 3239.38C1032.72 3387.58 1262.55 3476.67 1513.14 3476.67V3435.08C1272.59 3435.08 1052.05 3349.6 880.17 3207.34L853.654 3239.38ZM68.2805 3409.63C414.044 3472.5 700.155 3359.43 878.44 3240.66L855.384 3206.05C683.542 3320.53 408.237 3429.17 75.7195 3368.72L68.2805 3409.63ZM491.578 2629.12C498.091 2863.58 413.542 3039.05 315.978 3161.01C218.005 3283.47 107.329 3351.41 63.8093 3370.06L80.1907 3408.28C130.081 3386.9 246.259 3314.73 348.451 3186.99C451.051 3058.73 539.979 2873.91 533.147 2627.97L491.578 2629.12ZM533.414 2621.78C531.941 2619.99 530.529 2618.17 529.179 2616.32L495.547 2640.78C497.404 2643.33 499.336 2645.82 501.339 2648.25L533.414 2621.78Z" fill="#278EFF"/>
<rect x="456" width="15168" height="3456" rx="1000" fill="#278EFF"/>
<path d="M1571.5 1505V831.873H1837.07C1888.13 831.873 1931.62 841.623 1967.56 861.125C2003.49 880.407 2030.88 907.249 2049.73 941.65C2068.79 975.833 2078.32 1015.27 2078.32 1059.97C2078.32 1104.67 2068.68 1144.11 2049.4 1178.3C2030.12 1212.48 2002.18 1239.1 1965.59 1258.16C1929.21 1277.23 1885.17 1286.76 1833.46 1286.76H1664.19V1172.71H1810.45C1837.84 1172.71 1860.41 1168 1878.16 1158.58C1896.13 1148.93 1909.49 1135.68 1918.26 1118.81C1927.24 1101.72 1931.73 1082.1 1931.73 1059.97C1931.73 1037.62 1927.24 1018.12 1918.26 1001.47C1909.49 984.597 1896.13 971.56 1878.16 962.357C1860.19 952.935 1837.4 948.224 1809.79 948.224H1713.82V1505H1571.5ZM2214.41 1505V1000.15H2350.15V1088.24H2355.41C2364.61 1056.91 2380.06 1033.24 2401.75 1017.25C2423.45 1001.03 2448.43 992.924 2476.69 992.924C2483.7 992.924 2491.26 993.362 2499.37 994.238C2507.48 995.115 2514.6 996.32 2520.74 997.854V1122.09C2514.16 1120.12 2505.07 1118.37 2493.46 1116.83C2481.84 1115.3 2471.21 1114.53 2461.57 1114.53C2440.98 1114.53 2422.57 1119.03 2406.36 1128.01C2390.36 1136.77 2377.65 1149.04 2368.23 1164.82C2359.03 1180.6 2354.43 1198.78 2354.43 1219.38V1505H2214.41ZM2845.98 1514.86C2794.05 1514.86 2749.35 1504.34 2711.88 1483.31C2674.63 1462.05 2645.92 1432.03 2625.76 1393.25C2605.6 1354.25 2595.53 1308.12 2595.53 1254.88C2595.53 1202.95 2605.6 1157.37 2625.76 1118.15C2645.92 1078.93 2674.3 1048.36 2710.89 1026.45C2747.7 1004.54 2790.87 993.581 2840.39 993.581C2873.69 993.581 2904.7 998.949 2933.4 1009.69C2962.33 1020.2 2987.53 1036.09 3009 1057.34C3030.69 1078.6 3047.56 1105.33 3059.62 1137.54C3071.67 1169.53 3077.69 1207 3077.69 1249.95V1288.4H2651.4V1201.63H2945.89C2945.89 1181.47 2941.51 1163.62 2932.75 1148.06C2923.98 1132.5 2911.82 1120.34 2896.26 1111.58C2880.93 1102.59 2863.07 1098.1 2842.69 1098.1C2821.43 1098.1 2802.59 1103.03 2786.16 1112.89C2769.94 1122.53 2757.23 1135.57 2748.03 1152C2738.83 1168.22 2734.12 1186.29 2733.9 1206.23V1288.73C2733.9 1313.71 2738.5 1335.29 2747.7 1353.48C2757.12 1371.67 2770.38 1385.69 2787.47 1395.55C2804.56 1405.41 2824.83 1410.34 2848.28 1410.34C2863.83 1410.34 2878.08 1408.15 2891 1403.77C2903.93 1399.39 2915 1392.81 2924.2 1384.05C2933.4 1375.28 2940.42 1364.55 2945.24 1351.84L3074.73 1360.38C3068.16 1391.5 3054.68 1418.67 3034.31 1441.89C3014.15 1464.9 2988.07 1482.87 2956.08 1495.8C2924.31 1508.51 2887.61 1514.86 2845.98 1514.86ZM3635.39 1144.11L3507.21 1152C3505.01 1141.05 3500.3 1131.19 3493.07 1122.42C3485.84 1113.44 3476.31 1106.32 3464.48 1101.06C3452.86 1095.58 3438.95 1092.84 3422.74 1092.84C3401.04 1092.84 3382.75 1097.44 3367.85 1106.65C3352.95 1115.63 3345.5 1127.68 3345.5 1142.8C3345.5 1154.85 3350.32 1165.04 3359.96 1173.37C3369.6 1181.69 3386.14 1188.38 3409.59 1193.42L3500.96 1211.82C3550.04 1221.9 3586.64 1238.12 3610.74 1260.47C3634.84 1282.82 3646.89 1312.18 3646.89 1348.55C3646.89 1381.64 3637.14 1410.67 3617.64 1435.65C3598.36 1460.63 3571.84 1480.13 3538.1 1494.15C3504.58 1507.96 3465.9 1514.86 3422.08 1514.86C3355.25 1514.86 3302 1500.95 3262.34 1473.12C3222.9 1445.07 3199.78 1406.95 3192.99 1358.74L3330.71 1351.51C3334.87 1371.89 3344.95 1387.44 3360.94 1398.18C3376.94 1408.7 3397.43 1413.96 3422.41 1413.96C3446.95 1413.96 3466.67 1409.25 3481.57 1399.82C3496.69 1390.18 3504.36 1377.8 3504.58 1362.68C3504.36 1349.97 3498.99 1339.57 3488.47 1331.46C3477.95 1323.13 3461.74 1316.78 3439.83 1312.4L3352.4 1294.98C3303.1 1285.12 3266.4 1268.03 3242.29 1243.7C3218.41 1219.38 3206.47 1188.38 3206.47 1150.69C3206.47 1118.26 3215.23 1090.32 3232.76 1066.88C3250.51 1043.43 3275.38 1025.35 3307.37 1012.64C3339.58 999.935 3377.27 993.581 3420.43 993.581C3484.2 993.581 3534.38 1007.06 3570.97 1034.01C3607.78 1060.96 3629.25 1097.66 3635.39 1144.11ZM4201.38 1144.11L4073.2 1152C4071.01 1141.05 4066.3 1131.19 4059.07 1122.42C4051.84 1113.44 4042.31 1106.32 4030.47 1101.06C4018.86 1095.58 4004.95 1092.84 3988.73 1092.84C3967.04 1092.84 3948.74 1097.44 3933.84 1106.65C3918.94 1115.63 3911.49 1127.68 3911.49 1142.8C3911.49 1154.85 3916.31 1165.04 3925.95 1173.37C3935.6 1181.69 3952.14 1188.38 3975.58 1193.42L4066.96 1211.82C4116.04 1221.9 4152.63 1238.12 4176.73 1260.47C4200.84 1282.82 4212.89 1312.18 4212.89 1348.55C4212.89 1381.64 4203.14 1410.67 4183.64 1435.65C4164.35 1460.63 4137.84 1480.13 4104.1 1494.15C4070.57 1507.96 4031.9 1514.86 3988.07 1514.86C3921.24 1514.86 3868 1500.95 3828.34 1473.12C3788.9 1445.07 3765.78 1406.95 3758.99 1358.74L3896.7 1351.51C3900.87 1371.89 3910.94 1387.44 3926.94 1398.18C3942.94 1408.7 3963.42 1413.96 3988.4 1413.96C4012.94 1413.96 4032.66 1409.25 4047.56 1399.82C4062.68 1390.18 4070.35 1377.8 4070.57 1362.68C4070.35 1349.97 4064.98 1339.57 4054.47 1331.46C4043.95 1323.13 4027.73 1316.78 4005.82 1312.4L3918.39 1294.98C3869.09 1285.12 3832.39 1268.03 3808.29 1243.7C3784.4 1219.38 3772.46 1188.38 3772.46 1150.69C3772.46 1118.26 3781.23 1090.32 3798.76 1066.88C3816.51 1043.43 3841.38 1025.35 3873.37 1012.64C3905.58 999.935 3943.26 993.581 3986.43 993.581C4050.19 993.581 4100.37 1007.06 4136.96 1034.01C4173.78 1060.96 4195.25 1097.66 4201.38 1144.11ZM4607.82 1505V1000.15H4747.84V1505H4607.82ZM4678.16 935.077C4657.34 935.077 4639.49 928.175 4624.59 914.37C4609.91 900.347 4602.57 883.584 4602.57 864.083C4602.57 844.801 4609.91 828.257 4624.59 814.453C4639.49 800.429 4657.34 793.418 4678.16 793.418C4698.98 793.418 4716.73 800.429 4731.41 814.453C4746.31 828.257 4753.76 844.801 4753.76 864.083C4753.76 883.584 4746.31 900.347 4731.41 914.37C4716.73 928.175 4698.98 935.077 4678.16 935.077ZM5046.29 1213.14V1505H4906.28V1000.15H5039.72V1089.23H5045.64C5056.81 1059.86 5075.55 1036.64 5101.84 1019.55C5128.13 1002.24 5160.02 993.581 5197.48 993.581C5232.54 993.581 5263.11 1001.25 5289.18 1016.59C5315.26 1031.93 5335.53 1053.84 5349.99 1082.32C5364.45 1110.59 5371.68 1144.33 5371.68 1183.56V1505H5231.67V1208.53C5231.89 1177.64 5224 1153.54 5208 1136.23C5192.01 1118.7 5169.99 1109.93 5141.94 1109.93C5123.09 1109.93 5106.44 1113.99 5091.98 1122.09C5077.74 1130.2 5066.56 1142.03 5058.45 1157.59C5050.57 1172.93 5046.51 1191.44 5046.29 1213.14ZM5799.8 1000.15V1105.33H5488.21V1000.15H5799.8ZM5559.54 1505V963.672C5559.54 927.079 5566.66 896.731 5580.9 872.628C5595.36 848.526 5615.08 830.448 5640.06 818.397C5665.04 806.346 5693.42 800.32 5725.19 800.32C5746.66 800.32 5766.27 801.963 5784.02 805.25C5801.99 808.537 5815.36 811.495 5824.12 814.124L5799.14 919.3C5793.66 917.547 5786.87 915.904 5778.76 914.37C5770.88 912.836 5762.77 912.07 5754.44 912.07C5733.84 912.07 5719.49 916.89 5711.38 926.531C5703.28 935.953 5699.22 949.21 5699.22 966.301V1505H5559.54ZM6141.64 1514.86C6090.58 1514.86 6046.43 1504.01 6009.18 1482.32C5972.15 1460.41 5943.56 1429.95 5923.4 1390.95C5903.24 1351.73 5893.16 1306.26 5893.16 1254.55C5893.16 1202.4 5903.24 1156.82 5923.4 1117.82C5943.56 1078.6 5972.15 1048.14 6009.18 1026.45C6046.43 1004.54 6090.58 993.581 6141.64 993.581C6192.69 993.581 6236.73 1004.54 6273.76 1026.45C6311.01 1048.14 6339.72 1078.6 6359.88 1117.82C6380.04 1156.82 6390.12 1202.4 6390.12 1254.55C6390.12 1306.26 6380.04 1351.73 6359.88 1390.95C6339.72 1429.95 6311.01 1460.41 6273.76 1482.32C6236.73 1504.01 6192.69 1514.86 6141.64 1514.86ZM6142.29 1406.4C6165.52 1406.4 6184.91 1399.82 6200.47 1386.68C6216.03 1373.31 6227.75 1355.12 6235.64 1332.12C6243.75 1309.11 6247.8 1282.92 6247.8 1253.56C6247.8 1224.2 6243.75 1198.02 6235.64 1175.01C6227.75 1152 6216.03 1133.82 6200.47 1120.45C6184.91 1107.08 6165.52 1100.4 6142.29 1100.4C6118.85 1100.4 6099.13 1107.08 6083.13 1120.45C6067.36 1133.82 6055.41 1152 6047.31 1175.01C6039.42 1198.02 6035.48 1224.2 6035.48 1253.56C6035.48 1282.92 6039.42 1309.11 6047.31 1332.12C6055.41 1355.12 6067.36 1373.31 6083.13 1386.68C6099.13 1399.82 6118.85 1406.4 6142.29 1406.4ZM7059.41 1000.15V1105.33H6747.83V1000.15H7059.41ZM6819.15 1505V963.672C6819.15 927.079 6826.27 896.731 6840.52 872.628C6854.98 848.526 6874.7 830.448 6899.68 818.397C6924.66 806.346 6953.03 800.32 6984.8 800.32C7006.28 800.32 7025.89 801.963 7043.64 805.25C7061.61 808.537 7074.97 811.495 7083.74 814.124L7058.76 919.3C7053.28 917.547 7046.49 915.904 7038.38 914.37C7030.49 912.836 7022.38 912.07 7014.06 912.07C6993.46 912.07 6979.11 916.89 6971 926.531C6962.89 935.953 6958.84 949.21 6958.84 966.301V1505H6819.15ZM7401.25 1514.86C7350.2 1514.86 7306.05 1504.01 7268.8 1482.32C7231.77 1460.41 7203.17 1429.95 7183.01 1390.95C7162.85 1351.73 7152.77 1306.26 7152.77 1254.55C7152.77 1202.4 7162.85 1156.82 7183.01 1117.82C7203.17 1078.6 7231.77 1048.14 7268.8 1026.45C7306.05 1004.54 7350.2 993.581 7401.25 993.581C7452.31 993.581 7496.35 1004.54 7533.38 1026.45C7570.63 1048.14 7599.33 1078.6 7619.49 1117.82C7639.65 1156.82 7649.73 1202.4 7649.73 1254.55C7649.73 1306.26 7639.65 1351.73 7619.49 1390.95C7599.33 1429.95 7570.63 1460.41 7533.38 1482.32C7496.35 1504.01 7452.31 1514.86 7401.25 1514.86ZM7401.91 1406.4C7425.14 1406.4 7444.53 1399.82 7460.09 1386.68C7475.64 1373.31 7487.37 1355.12 7495.25 1332.12C7503.36 1309.11 7507.42 1282.92 7507.42 1253.56C7507.42 1224.2 7503.36 1198.02 7495.25 1175.01C7487.37 1152 7475.64 1133.82 7460.09 1120.45C7444.53 1107.08 7425.14 1100.4 7401.91 1100.4C7378.46 1100.4 7358.74 1107.08 7342.75 1120.45C7326.97 1133.82 7315.03 1152 7306.92 1175.01C7299.03 1198.02 7295.09 1224.2 7295.09 1253.56C7295.09 1282.92 7299.03 1309.11 7306.92 1332.12C7315.03 1355.12 7326.97 1373.31 7342.75 1386.68C7358.74 1399.82 7378.46 1406.4 7401.91 1406.4ZM7787.05 1505V1000.15H7922.8V1088.24H7928.05C7937.26 1056.91 7952.7 1033.24 7974.4 1017.25C7996.09 1001.03 8021.07 992.924 8049.34 992.924C8056.35 992.924 8063.91 993.362 8072.01 994.238C8080.12 995.115 8087.24 996.32 8093.38 997.854V1122.09C8086.8 1120.12 8077.71 1118.37 8066.1 1116.83C8054.48 1115.3 8043.86 1114.53 8034.22 1114.53C8013.62 1114.53 7995.21 1119.03 7979 1128.01C7963 1136.77 7950.29 1149.04 7940.87 1164.82C7931.67 1180.6 7927.07 1198.78 7927.07 1219.38V1505H7787.05ZM8612.55 1213.14V1505H8472.54V831.873H8608.61V1089.23H8614.53C8625.92 1059.43 8644.33 1036.09 8669.74 1019.22C8695.16 1002.13 8727.04 993.581 8765.39 993.581C8800.45 993.581 8831.01 1001.25 8857.09 1016.59C8883.38 1031.71 8903.76 1053.51 8918.22 1081.99C8932.9 1110.26 8940.13 1144.11 8939.91 1183.56V1505H8799.9V1208.53C8800.12 1177.42 8792.23 1153.21 8776.23 1135.9C8760.46 1118.59 8738.33 1109.93 8709.84 1109.93C8690.78 1109.93 8673.91 1113.99 8659.23 1122.09C8644.76 1130.2 8633.37 1142.03 8625.04 1157.59C8616.94 1172.93 8612.77 1191.44 8612.55 1213.14ZM9326.45 1514.86C9274.52 1514.86 9229.82 1504.34 9192.35 1483.31C9155.1 1462.05 9126.4 1432.03 9106.24 1393.25C9086.08 1354.25 9076 1308.12 9076 1254.88C9076 1202.95 9086.08 1157.37 9106.24 1118.15C9126.4 1078.93 9154.77 1048.36 9191.37 1026.45C9228.18 1004.54 9271.35 993.581 9320.87 993.581C9354.17 993.581 9385.18 998.949 9413.88 1009.69C9442.8 1020.2 9468 1036.09 9489.48 1057.34C9511.17 1078.6 9528.04 1105.33 9540.09 1137.54C9552.14 1169.53 9558.17 1207 9558.17 1249.95V1288.4H9131.88V1201.63H9426.37C9426.37 1181.47 9421.99 1163.62 9413.22 1148.06C9404.46 1132.5 9392.3 1120.34 9376.74 1111.58C9361.4 1102.59 9343.54 1098.1 9323.17 1098.1C9301.91 1098.1 9283.07 1103.03 9266.63 1112.89C9250.42 1122.53 9237.71 1135.57 9228.51 1152C9219.3 1168.22 9214.59 1186.29 9214.37 1206.23V1288.73C9214.37 1313.71 9218.98 1335.29 9228.18 1353.48C9237.6 1371.67 9250.86 1385.69 9267.95 1395.55C9285.04 1405.41 9305.31 1410.34 9328.75 1410.34C9344.31 1410.34 9358.55 1408.15 9371.48 1403.77C9384.41 1399.39 9395.47 1392.81 9404.68 1384.05C9413.88 1375.28 9420.89 1364.55 9425.71 1351.84L9555.21 1360.38C9548.64 1391.5 9535.16 1418.67 9514.78 1441.89C9494.63 1464.9 9468.55 1482.87 9436.56 1495.8C9404.79 1508.51 9368.09 1514.86 9326.45 1514.86ZM9835.83 831.873V1505H9695.82V831.873H9835.83ZM9994.27 1694.32V1000.15H10132.3V1084.95H10138.6C10144.7 1071.37 10153.6 1057.56 10165.2 1043.54C10177 1029.3 10192.4 1017.46 10211.2 1008.04C10230.3 998.402 10253.9 993.581 10282.2 993.581C10319 993.581 10353 1003.22 10384.1 1022.5C10415.2 1041.57 10440.1 1070.38 10458.7 1108.95C10477.3 1147.29 10486.6 1195.39 10486.6 1253.23C10486.6 1309.55 10477.5 1357.1 10459.3 1395.88C10441.4 1434.44 10416.8 1463.7 10385.7 1483.64C10354.8 1503.36 10320.2 1513.22 10281.9 1513.22C10254.7 1513.22 10231.6 1508.72 10212.5 1499.74C10193.7 1490.76 10178.2 1479.47 10166.2 1465.89C10154.1 1452.08 10144.9 1438.17 10138.6 1424.15H10134.3V1694.32H9994.27ZM10131.3 1252.58C10131.3 1282.6 10135.5 1308.78 10143.8 1331.13C10152.1 1353.48 10164.2 1370.9 10180 1383.39C10195.8 1395.66 10214.9 1401.8 10237.5 1401.8C10260.3 1401.8 10279.6 1395.55 10295.3 1383.06C10311.1 1370.35 10323.1 1352.82 10331.2 1330.47C10339.5 1307.9 10343.7 1281.94 10343.7 1252.58C10343.7 1223.43 10339.6 1197.8 10331.5 1175.67C10323.4 1153.54 10311.4 1136.23 10295.7 1123.74C10279.9 1111.25 10260.5 1105 10237.5 1105C10214.7 1105 10195.4 1111.03 10179.6 1123.08C10164.1 1135.13 10152.1 1152.22 10143.8 1174.35C10135.5 1196.48 10131.3 1222.56 10131.3 1252.58ZM10708.1 1513.55C10686.4 1513.55 10667.8 1505.88 10652.2 1490.54C10636.9 1474.98 10629.2 1456.36 10629.2 1434.66C10629.2 1413.19 10636.9 1394.78 10652.2 1379.45C10667.8 1364.11 10686.4 1356.44 10708.1 1356.44C10729.1 1356.44 10747.5 1364.11 10763.3 1379.45C10779.1 1394.78 10787 1413.19 10787 1434.66C10787 1449.13 10783.2 1462.38 10775.8 1474.43C10768.6 1486.27 10759 1495.8 10747.2 1503.03C10735.4 1510.04 10722.3 1513.55 10708.1 1513.55ZM11179.7 1505V831.873H11322V1387.66H11610.6V1505H11179.7ZM11978.6 1514.86C11926.6 1514.86 11881.9 1504.34 11844.5 1483.31C11807.2 1462.05 11778.5 1432.03 11758.3 1393.25C11738.2 1354.25 11728.1 1308.12 11728.1 1254.88C11728.1 1202.95 11738.2 1157.37 11758.3 1118.15C11778.5 1078.93 11806.9 1048.36 11843.5 1026.45C11880.3 1004.54 11923.4 993.581 11973 993.581C12006.3 993.581 12037.3 998.949 12066 1009.69C12094.9 1020.2 12120.1 1036.09 12141.6 1057.34C12163.3 1078.6 12180.1 1105.33 12192.2 1137.54C12204.2 1169.53 12210.3 1207 12210.3 1249.95V1288.4H11784V1201.63H12078.5C12078.5 1181.47 12074.1 1163.62 12065.3 1148.06C12056.6 1132.5 12044.4 1120.34 12028.8 1111.58C12013.5 1102.59 11995.6 1098.1 11975.3 1098.1C11954 1098.1 11935.2 1103.03 11918.7 1112.89C11902.5 1122.53 11889.8 1135.57 11880.6 1152C11871.4 1168.22 11866.7 1186.29 11866.5 1206.23V1288.73C11866.5 1313.71 11871.1 1335.29 11880.3 1353.48C11889.7 1371.67 11903 1385.69 11920 1395.55C11937.1 1405.41 11957.4 1410.34 11980.9 1410.34C11996.4 1410.34 12010.7 1408.15 12023.6 1403.77C12036.5 1399.39 12047.6 1392.81 12056.8 1384.05C12066 1375.28 12073 1364.55 12077.8 1351.84L12207.3 1360.38C12200.7 1391.5 12187.3 1418.67 12166.9 1441.89C12146.7 1464.9 12120.6 1482.87 12088.7 1495.8C12056.9 1508.51 12020.2 1514.86 11978.6 1514.86ZM12616.4 1000.15V1105.33H12312.4V1000.15H12616.4ZM12381.4 879.202H12521.5V1349.87C12521.5 1362.79 12523.4 1372.87 12527.4 1380.1C12531.3 1387.12 12536.8 1392.05 12543.8 1394.89C12551 1397.74 12559.4 1399.17 12568.8 1399.17C12575.4 1399.17 12581.9 1398.62 12588.5 1397.52C12595.1 1396.21 12600.1 1395.22 12603.6 1394.57L12625.6 1498.76C12618.6 1500.95 12608.8 1503.47 12596.1 1506.31C12583.4 1509.38 12567.9 1511.24 12549.7 1511.9C12516 1513.22 12486.4 1508.72 12461 1498.43C12435.8 1488.13 12416.2 1472.13 12402.1 1450.44C12388.1 1428.75 12381.2 1401.36 12381.4 1368.27V879.202ZM12844 831.873V1087.58H12744.1V831.873H12844ZM13413.7 1144.11L13285.5 1152C13283.3 1141.05 13278.6 1131.19 13271.4 1122.42C13264.1 1113.44 13254.6 1106.32 13242.8 1101.06C13231.2 1095.58 13217.2 1092.84 13201 1092.84C13179.3 1092.84 13161 1097.44 13146.1 1106.65C13131.2 1115.63 13123.8 1127.68 13123.8 1142.8C13123.8 1154.85 13128.6 1165.04 13138.2 1173.37C13147.9 1181.69 13164.4 1188.38 13187.9 1193.42L13279.3 1211.82C13328.3 1221.9 13364.9 1238.12 13389 1260.47C13413.1 1282.82 13425.2 1312.18 13425.2 1348.55C13425.2 1381.64 13415.4 1410.67 13395.9 1435.65C13376.6 1460.63 13350.1 1480.13 13316.4 1494.15C13282.9 1507.96 13244.2 1514.86 13200.4 1514.86C13133.5 1514.86 13080.3 1500.95 13040.6 1473.12C13001.2 1445.07 12978.1 1406.95 12971.3 1358.74L13109 1351.51C13113.2 1371.89 13123.2 1387.44 13139.2 1398.18C13155.2 1408.7 13175.7 1413.96 13200.7 1413.96C13225.2 1413.96 13245 1409.25 13259.9 1399.82C13275 1390.18 13282.6 1377.8 13282.9 1362.68C13282.6 1349.97 13277.3 1339.57 13266.8 1331.46C13256.2 1323.13 13240 1316.78 13218.1 1312.4L13130.7 1294.98C13081.4 1285.12 13044.7 1268.03 13020.6 1243.7C12996.7 1219.38 12984.8 1188.38 12984.8 1150.69C12984.8 1118.26 12993.5 1090.32 13011.1 1066.88C13028.8 1043.43 13053.7 1025.35 13085.7 1012.64C13117.9 999.935 13155.6 993.581 13198.7 993.581C13262.5 993.581 13312.7 1007.06 13349.3 1034.01C13386.1 1060.96 13407.5 1097.66 13413.7 1144.11ZM1571.5 2625V1951.87H1711.52V2204.95H1715.79C1721.93 2191.37 1730.8 2177.56 1742.42 2163.54C1754.25 2149.3 1769.59 2137.46 1788.43 2128.04C1807.49 2118.4 1831.16 2113.58 1859.42 2113.58C1896.24 2113.58 1930.2 2123.22 1961.31 2142.5C1992.43 2161.57 2017.3 2190.38 2035.92 2228.95C2054.55 2267.29 2063.86 2315.39 2063.86 2373.23C2063.86 2429.55 2054.77 2477.1 2036.58 2515.88C2018.61 2554.44 1994.07 2583.7 1962.96 2603.64C1932.06 2623.36 1897.44 2633.22 1859.1 2633.22C1831.92 2633.22 1808.81 2628.72 1789.74 2619.74C1770.9 2610.76 1755.45 2599.47 1743.4 2585.89C1731.35 2572.08 1722.15 2558.17 1715.79 2544.15H1709.55V2625H1571.5ZM1708.56 2372.58C1708.56 2402.6 1712.73 2428.78 1721.05 2451.13C1729.38 2473.48 1741.43 2490.9 1757.21 2503.39C1772.98 2515.66 1792.16 2521.8 1814.72 2521.8C1837.51 2521.8 1856.79 2515.55 1872.57 2503.06C1888.35 2490.35 1900.29 2472.82 1908.4 2450.47C1916.72 2427.9 1920.89 2401.94 1920.89 2372.58C1920.89 2343.43 1916.83 2317.8 1908.73 2295.67C1900.62 2273.54 1888.68 2256.23 1872.9 2243.74C1857.12 2231.25 1837.73 2225 1814.72 2225C1791.94 2225 1772.65 2231.03 1756.88 2243.08C1741.32 2255.13 1729.38 2272.22 1721.05 2294.35C1712.73 2316.48 1708.56 2342.56 1708.56 2372.58ZM2433.64 2634.86C2381.71 2634.86 2337.01 2624.34 2299.54 2603.31C2262.29 2582.05 2233.58 2552.03 2213.42 2513.25C2193.27 2474.25 2183.19 2428.12 2183.19 2374.88C2183.19 2322.95 2193.27 2277.37 2213.42 2238.15C2233.58 2198.93 2261.96 2168.36 2298.55 2146.45C2335.36 2124.54 2378.53 2113.58 2428.05 2113.58C2461.35 2113.58 2492.36 2118.95 2521.06 2129.69C2549.99 2140.2 2575.19 2156.09 2596.66 2177.34C2618.35 2198.6 2635.22 2225.33 2647.28 2257.54C2659.33 2289.53 2665.35 2327 2665.35 2369.95V2408.4H2239.06V2321.63H2533.55C2533.55 2301.47 2529.17 2283.62 2520.41 2268.06C2511.64 2252.5 2499.48 2240.34 2483.92 2231.58C2468.59 2222.59 2450.73 2218.1 2430.35 2218.1C2409.1 2218.1 2390.25 2223.03 2373.82 2232.89C2357.6 2242.53 2344.89 2255.57 2335.69 2272C2326.49 2288.22 2321.78 2306.29 2321.56 2326.23V2408.73C2321.56 2433.71 2326.16 2455.29 2335.36 2473.48C2344.78 2491.67 2358.04 2505.69 2375.13 2515.55C2392.22 2525.41 2412.49 2530.34 2435.94 2530.34C2451.49 2530.34 2465.74 2528.15 2478.66 2523.77C2491.59 2519.39 2502.66 2512.81 2511.86 2504.05C2521.06 2495.28 2528.08 2484.55 2532.9 2471.84L2662.39 2480.38C2655.82 2511.5 2642.35 2538.67 2621.97 2561.89C2601.81 2584.9 2575.73 2602.87 2543.74 2615.8C2511.97 2628.51 2475.27 2634.86 2433.64 2634.86ZM3030.45 2824.83C2985.09 2824.83 2946.19 2818.59 2913.77 2806.1C2881.56 2793.83 2855.92 2777.07 2836.86 2755.81C2817.79 2734.56 2805.41 2710.67 2799.72 2684.16L2929.21 2666.74C2933.16 2676.82 2939.4 2686.24 2947.95 2695.01C2956.49 2703.77 2967.78 2710.78 2981.8 2716.04C2996.04 2721.52 3013.35 2724.26 3033.73 2724.26C3064.19 2724.26 3089.28 2716.81 3109 2701.91C3128.94 2687.23 3138.91 2662.58 3138.91 2627.96V2535.6H3132.99C3126.86 2549.62 3117.65 2562.88 3105.38 2575.37C3093.11 2587.86 3077.34 2598.05 3058.05 2605.94C3038.77 2613.83 3015.76 2617.77 2989.03 2617.77C2951.12 2617.77 2916.61 2609 2885.5 2591.48C2854.6 2573.73 2829.95 2546.67 2811.55 2510.29C2793.36 2473.7 2784.27 2427.47 2784.27 2371.59C2784.27 2314.4 2793.58 2266.63 2812.2 2228.29C2830.83 2189.94 2855.59 2161.24 2886.49 2142.18C2917.6 2123.11 2951.67 2113.58 2988.7 2113.58C3016.97 2113.58 3040.63 2118.4 3059.7 2128.04C3078.76 2137.46 3094.1 2149.3 3105.71 2163.54C3117.54 2177.56 3126.64 2191.37 3132.99 2204.95H3138.25V2120.15H3277.28V2629.93C3277.28 2672.88 3266.76 2708.81 3245.73 2737.74C3224.69 2766.66 3195.55 2788.35 3158.3 2802.81C3121.27 2817.49 3078.65 2824.83 3030.45 2824.83ZM3033.4 2512.59C3055.97 2512.59 3075.04 2507.01 3090.59 2495.83C3106.37 2484.44 3118.42 2468.22 3126.75 2447.19C3135.29 2425.93 3139.57 2400.51 3139.57 2370.93C3139.57 2341.35 3135.4 2315.72 3127.08 2294.02C3118.75 2272.11 3106.7 2255.13 3090.92 2243.08C3075.15 2231.03 3055.97 2225 3033.4 2225C3010.4 2225 2991 2231.25 2975.23 2243.74C2959.45 2256.01 2947.51 2273.1 2939.4 2295.01C2931.29 2316.92 2927.24 2342.23 2927.24 2370.93C2927.24 2400.08 2931.29 2425.27 2939.4 2446.53C2947.73 2467.56 2959.67 2483.89 2975.23 2495.5C2991 2506.9 3010.4 2512.59 3033.4 2512.59ZM3434.98 2625V2120.15H3574.99V2625H3434.98ZM3505.32 2055.08C3484.5 2055.08 3466.64 2048.17 3451.74 2034.37C3437.06 2020.35 3429.72 2003.58 3429.72 1984.08C3429.72 1964.8 3437.06 1948.26 3451.74 1934.45C3466.64 1920.43 3484.5 1913.42 3505.32 1913.42C3526.13 1913.42 3543.88 1920.43 3558.56 1934.45C3573.46 1948.26 3580.91 1964.8 3580.91 1984.08C3580.91 2003.58 3573.46 2020.35 3558.56 2034.37C3543.88 2048.17 3526.13 2055.08 3505.32 2055.08ZM3873.45 2333.14V2625H3733.43V2120.15H3866.87V2209.23H3872.79C3883.97 2179.86 3902.7 2156.64 3928.99 2139.55C3955.29 2122.24 3987.17 2113.58 4024.64 2113.58C4059.7 2113.58 4090.26 2121.25 4116.34 2136.59C4142.41 2151.93 4162.68 2173.84 4177.14 2202.32C4191.61 2230.59 4198.84 2264.33 4198.84 2303.56V2625H4058.82V2328.53C4059.04 2297.64 4051.15 2273.54 4035.16 2256.23C4019.16 2238.7 3997.14 2229.93 3969.09 2229.93C3950.25 2229.93 3933.6 2233.99 3919.13 2242.09C3904.89 2250.2 3893.72 2262.03 3885.61 2277.59C3877.72 2292.93 3873.67 2311.44 3873.45 2333.14ZM4522.76 1951.87L4509.94 2423.19H4389.65L4376.5 1951.87H4522.76ZM4449.8 2633.55C4428.1 2633.55 4409.48 2625.88 4393.92 2610.54C4378.36 2594.98 4370.7 2576.36 4370.91 2554.66C4370.7 2533.19 4378.36 2514.78 4393.92 2499.45C4409.48 2484.11 4428.1 2476.44 4449.8 2476.44C4470.61 2476.44 4488.91 2484.11 4504.69 2499.45C4520.46 2514.78 4528.46 2533.19 4528.68 2554.66C4528.46 2569.13 4524.63 2582.38 4517.18 2594.43C4509.94 2606.27 4500.41 2615.8 4488.58 2623.03C4476.75 2630.04 4463.82 2633.55 4449.8 2633.55Z" fill="white"/>
</svg>
