<svg width="6416" height="12479" viewBox="0 0 6416 12479" fill="none" xmlns="http://www.w3.org/2000/svg">
<path d="M3855.49 6239.41H4444.11C4704.18 6239.41 4915.01 6450.24 4915.01 6710.31V6886.9C4915.01 7081.95 4756.89 7240.07 4561.83 7240.07H4208.66C4013.61 7240.07 3855.49 7081.95 3855.49 6886.9V6239.41Z" fill="#8AC7E1"/>
<path d="M3296.29 6710.31C3296.29 6450.24 3507.12 6239.41 3767.19 6239.41H4002.64C4262.71 6239.41 4473.54 6450.24 4473.54 6710.31V6886.9C4473.54 7081.95 4315.42 7240.07 4120.37 7240.07H3649.47C3454.41 7240.07 3296.29 7081.95 3296.29 6886.9V6710.31Z" fill="#1C789F"/>
<rect x="3678.9" y="7240.07" width="588.624" height="4385.25" fill="#07394F"/>
<path d="M4032.07 11743C4032.07 11678 4084.78 11625.3 4149.8 11625.3H4738.42C4933.48 11625.3 5091.6 11783.4 5091.6 11978.5V12361.1C5091.6 12426.1 5038.89 12478.8 4973.87 12478.8H4149.8C4084.78 12478.8 4032.07 12426.1 4032.07 12361.1V11743Z" fill="#8AC7E1"/>
<path d="M3296.29 11743C3296.29 11678 3349 11625.3 3414.02 11625.3H4296.95C4492.01 11625.3 4650.13 11783.4 4650.13 11978.5V12361.1C4650.13 12426.1 4597.42 12478.8 4532.4 12478.8H3414.02C3349 12478.8 3296.29 12426.1 3296.29 12361.1V11743Z" fill="#1C789F"/>
<path d="M2354.5 6239.41H2943.12C3203.19 6239.41 3414.02 6450.24 3414.02 6710.31V6886.9C3414.02 7081.95 3255.9 7240.07 3060.84 7240.07H2707.67C2512.62 7240.07 2354.5 7081.95 2354.5 6886.9V6239.41Z" fill="#8AC7E1"/>
<path d="M1795.3 6710.31C1795.3 6450.24 2006.13 6239.41 2266.2 6239.41H2501.65C2761.72 6239.41 2972.55 6450.24 2972.55 6710.31V6886.9C2972.55 7081.95 2814.43 7240.07 2619.38 7240.07H2148.48C1953.42 7240.07 1795.3 7081.95 1795.3 6886.9V6710.31Z" fill="#1C789F"/>
<rect x="2177.91" y="7240.07" width="588.624" height="4385.25" fill="#07394F"/>
<path d="M2531.08 11743C2531.08 11678 2583.79 11625.3 2648.81 11625.3H3237.43C3432.48 11625.3 3590.6 11783.4 3590.6 11978.5V12361.1C3590.6 12426.1 3537.9 12478.8 3472.88 12478.8H2648.81C2583.79 12478.8 2531.08 12426.1 2531.08 12361.1V11743Z" fill="#8AC7E1"/>
<path d="M1795.3 11743C1795.3 11678 1848.01 11625.3 1913.03 11625.3H2795.96C2991.02 11625.3 3149.14 11783.4 3149.14 11978.5V12361.1C3149.14 12426.1 3096.43 12478.8 3031.41 12478.8H1913.03C1848.01 12478.8 1795.3 12426.1 1795.3 12361.1V11743Z" fill="#1C789F"/>
<path d="M5356.48 4149.8H5945.1C6205.17 4149.8 6416 4360.63 6416 4620.7V5974.53C6416 6039.55 6363.29 6092.26 6298.27 6092.26H5474.2C5409.18 6092.26 5356.48 6039.55 5356.48 5974.53V4149.8Z" fill="#8AC7E1"/>
<path d="M4797.29 4620.7C4797.29 4360.63 5008.11 4149.8 5268.18 4149.8H5503.63C5763.7 4149.8 5974.53 4360.63 5974.53 4620.7V5974.53C5974.53 6039.55 5921.83 6092.26 5856.81 6092.26H4915.01C4849.99 6092.26 4797.29 6039.55 4797.29 5974.53V4620.7Z" fill="#1C789F"/>
<rect x="5312.33" y="6092.26" width="588.624" height="1294.97" fill="#07394F"/>
<path d="M5356.48 7387.23H6180.55C6310.59 7387.23 6416 7492.64 6416 7622.68V8387.89C6416 8647.96 6205.17 8858.79 5945.1 8858.79H5474.2C5409.18 8858.79 5356.48 8806.08 5356.48 8741.07V7387.23Z" fill="#8AC7E1"/>
<path d="M4797.29 7622.68C4797.29 7492.65 4902.7 7387.23 5032.73 7387.23H5739.08C5869.12 7387.23 5974.53 7492.64 5974.53 7622.68V8387.89C5974.53 8647.96 5763.7 8858.79 5503.63 8858.79H5268.18C5008.11 8858.79 4797.29 8647.96 4797.29 8387.89V7622.68Z" fill="#1C789F"/>
<path d="M470.898 5032.73C470.898 4285.03 1077.03 3678.9 1824.73 3678.9H4944.44C5692.14 3678.9 6298.27 4285.03 6298.27 5032.73V5886.24C6298.27 6276.34 5982.03 6592.59 5591.93 6592.59H1177.25C787.142 6592.59 470.898 6276.34 470.898 5886.24V5032.73Z" fill="#8AC7E1"/>
<path d="M470.898 4694.28C470.898 4133.5 925.498 3678.9 1486.27 3678.9V3678.9C2047.05 3678.9 2501.65 4133.5 2501.65 4694.28V5886.24C2501.65 6276.34 2185.41 6592.59 1795.3 6592.59H1177.25C787.141 6592.59 470.898 6276.34 470.898 5886.24V4694.28Z" fill="#1C789F"/>
<rect x="3826.05" y="5238.75" width="706.349" height="706.349" rx="235.45" fill="#1C789F"/>
<rect x="4032.07" y="5238.75" width="706.349" height="706.349" rx="235.45" fill="#B0DDF0"/>
<g clip-path="url(#clip0_402_150)">
<rect x="2854.83" y="4561.83" width="2825.39" height="353.174" rx="117.725" fill="#07394F"/>
</g>
<rect x="2913.69" y="3384.59" width="1000.66" height="588.624" rx="235.45" fill="#07394F"/>
<path d="M559.193 4149.8H1147.82C1407.89 4149.8 1618.72 4360.63 1618.72 4620.7V5974.53C1618.72 6039.55 1566.01 6092.26 1500.99 6092.26H676.918C611.901 6092.26 559.193 6039.55 559.193 5974.53V4149.8Z" fill="#8AC7E1"/>
<path d="M0 4620.7C0 4360.63 210.829 4149.8 470.899 4149.8H706.349C966.419 4149.8 1177.25 4360.63 1177.25 4620.7V5974.53C1177.25 6039.55 1124.54 6092.26 1059.52 6092.26H117.725C52.7073 6092.26 0 6039.55 0 5974.53V4620.7Z" fill="#1C789F"/>
<rect x="515.047" y="6092.26" width="588.624" height="2266.2" fill="#07394F"/>
<path d="M559.193 8358.46H1383.27C1513.3 8358.46 1618.72 8463.87 1618.72 8593.91V9359.12C1618.72 9619.19 1407.89 9830.02 1147.82 9830.02H676.918C611.901 9830.02 559.193 9777.31 559.193 9712.29V8358.46Z" fill="#8AC7E1"/>
<path d="M0 8593.91C0 8463.87 105.414 8358.46 235.45 8358.46H941.798C1071.83 8358.46 1177.25 8463.87 1177.25 8593.91V9359.12C1177.25 9619.19 966.419 9830.02 706.349 9830.02H470.899C210.829 9830.02 0 9619.19 0 9359.12V8593.91Z" fill="#1C789F"/>
<g clip-path="url(#clip1_402_150)">
<path d="M441.469 1353.83C441.469 606.131 1047.6 0 1795.3 0H4915.01C5662.71 0 6268.84 606.133 6268.84 1353.83V2913.69C6268.84 3303.79 5952.6 3620.04 5562.5 3620.04H1147.82C757.712 3620.04 441.469 3303.79 441.469 2913.69V1353.83Z" fill="#8AC7E1"/>
<path d="M441.469 1015.38C441.469 454.599 896.068 0 1456.84 0V0C2017.62 0 2472.22 454.6 2472.22 1015.38V2913.69C2472.22 3303.79 2155.98 3620.04 1765.87 3620.04H1147.82C757.711 3620.04 441.469 3303.79 441.469 2913.69V1015.38Z" fill="#1C789F"/>
<rect x="2825.39" y="1236.11" width="3149.14" height="1059.52" rx="235.45" fill="#07394F"/>
<rect x="3914.35" y="1412.7" width="1000.66" height="676.917" fill="#07394F"/>
<rect x="3296.29" y="1471.56" width="353.174" height="588.624" rx="117.725" fill="#B0DDF0"/>
<rect x="5150.46" y="1471.56" width="353.174" height="588.624" rx="117.725" fill="#B0DDF0"/>
<rect x="3973.21" y="2737.1" width="882.936" height="294.312" rx="117.725" fill="#07394F"/>
</g>
<defs>
<clipPath id="clip0_402_150">
<rect x="2854.83" y="4561.83" width="2825.39" height="353.174" rx="117.725" fill="white"/>
</clipPath>
<clipPath id="clip1_402_150">
<rect width="5827.38" height="3620.04" fill="white" transform="translate(441.469)"/>
</clipPath>
</defs>
</svg>
